<svg width="64" height="64" viewBox="0 0 64 64" fill="none" xmlns="http://www.w3.org/2000/svg">
<path fill-rule="evenodd" clip-rule="evenodd" d="M63.9361 32C63.9361 49.6498 49.6285 63.9574 31.9787 63.9574C14.3291 63.9574 0.0212402 49.6498 0.0212402 32C0.0212402 14.3504 14.3291 0.0425415 31.9787 0.0425415C49.6285 0.0425415 63.9361 14.3504 63.9361 32ZM22.9229 44.7174H16.7208C15.4176 44.7174 14.7738 44.7174 14.3813 44.4664C13.9574 44.1915 13.6983 43.7362 13.6669 43.2336C13.6433 42.7706 13.9652 42.2052 14.609 41.0747L29.9226 14.0823C30.5742 12.9361 30.9039 12.363 31.32 12.1511C31.7675 11.9234 32.3014 11.9234 32.7489 12.1511C33.1649 12.363 33.4947 12.9361 34.1463 14.0823L37.2944 19.5778L37.3105 19.6059C38.0143 20.8355 38.3712 21.4591 38.527 22.1136C38.6997 22.828 38.6997 23.5816 38.527 24.2961C38.37 24.9555 38.0167 25.5836 37.3023 26.8319L29.2584 41.0511L29.2376 41.0876C28.5292 42.3273 28.1701 42.9557 27.6726 43.4298C27.1309 43.9481 26.4792 44.3247 25.7648 44.537C25.1132 44.7174 24.3831 44.7174 22.9229 44.7174ZM38.5851 44.7174H47.4719C48.7829 44.7174 49.4425 44.7174 49.8353 44.4587C50.2591 44.1838 50.5259 43.7204 50.5498 43.2183C50.5723 42.7702 50.2574 42.2268 49.6404 41.162C49.6191 41.1257 49.5978 41.0888 49.5761 41.0513L45.1246 33.4362L45.074 33.3504C44.4485 32.2926 44.1327 31.7585 43.7272 31.552C43.28 31.3243 42.7536 31.3243 42.3063 31.552C41.898 31.7639 41.5683 32.3214 40.9167 33.444L36.4811 41.0592L36.4659 41.0854C35.8166 42.2062 35.492 42.7664 35.5155 43.2259C35.5469 43.7285 35.8059 44.1915 36.2298 44.4664C36.6146 44.7174 37.274 44.7174 38.5851 44.7174Z" fill="#E84142"/>
</svg>
